<svg xmlns="http://www.w3.org/2000/svg" viewBox="0 0 512 512">
  <!-- Kangaroo body - adapted from open-source kangaroo icon -->
  <path fill="#2563eb" d="M489.7,119.4c-13-16.3-30.9-31.6-48.8-41.9V25.2c0-5.9-4.8-10.7-10.7-10.7c-12.6,0-24.3,4.3-33.6,11.5V10.7
    C396.6,4.8,391.8,0,385.9,0c-30.3,0-55,24.7-55,55v28c-7,9.5-10.8,21-10.8,32.9c0.1,6.9,0.5,14.4,1,22.4
    c0.3,4.1,0.5,8.1,0.7,12c0.1,1.6,0.1,3.1,0.2,4.7c0.1,3.9,0.2,7.7,0.2,11.4c0,1.5,0,3-0.03,4.4c-0.01,0.7-0.03,1.5-0.05,2.2
    c-0.04,1.4-0.09,2.9-0.16,4.3c-0.03,0.7-0.07,1.4-0.11,2.1c-0.12,2.1-0.29,4.2-0.49,6.2c-0.07,0.7-0.14,1.3-0.21,2
    c-1.88,16.5-6.59,30.6-16.53,41.6c-0.41,0.5-0.84,0.9-1.27,1.4c-0.12,0.1-0.24,0.3-0.36,0.4c-6.81,6.9-15.87,12.4-27.86,16.3
    c-11.19,3.7-22.53,7.7-33.34,12.8c-0.11,0.1-0.23,0.1-0.35,0.2c-0.01,0-0.02,0.01-0.04,0.02
    c-19.39,9.3-36.3,23.8-47.42,42.3c-12.57,20.9-16.7,46.4-18.37,70.4c-0.62,8.8-0.85,17.7-0.9,26.5
    c-0.11,17.3-6.2,33.5-19.58,44.9c-33.79,28.8-106.05,26.4-139.62,21.1c-0.6-0.1-1.21-0.16-1.81-0.16c-0.11,0-0.21,0.01-0.31,0.02
    c-0.02,0-0.04,0-0.07,0c-0.05,0-0.1,0.01-0.15,0.01c-5.67,0.28-10.19,4.96-10.19,10.7c0,4.36,2.61,8.11,6.35,9.78
    c0.03,0.01,0.06,0.03,0.08,0.04c0.16,0.07,0.33,0.14,0.49,0.2c0.06,0.02,0.13,0.05,0.19,0.07c0.05,0.02,0.09,0.03,0.14,0.05
    c0.03,0.01,0.07,0.03,0.1,0.04c0.05,0.02,0.14,0.05,0.23,0.08c0.2,0.07,0.46,0.15,0.77,0.25c0.02,0,0.03,0.01,0.05,0.02
    c0.47,0.15,1.06,0.34,1.77,0.56c40.59,12.7,85.04,19.3,127.58,18.2c41.74-1.08,83.86-11,119.31-33.04
    c-0.71,0.44,1.67,7.77,1.97,8.65c0.02,0.07,0.05,0.13,0.07,0.2c6.42,18.44,23.92,31.03,43.45,31.03h149.2
    c5.92,0,10.72-4.8,10.72-10.72c0-17.57-6.84-34.09-19.27-46.51c-12.42-12.42-28.93-19.26-46.5-19.26H364.8v-3.47
    c0.15-0.11,0.3-0.21,0.45-0.32c0.38-0.27,0.76-0.54,1.14-0.81c24.92-17.93,43.09-45.41,48.34-76.06
    c9.34-54.59-13.15-106.45-18.17-160.09c18.41,5.56,38.04,8.07,57.25,6.69c27.37-1.94,46.1-11.28,52.75-26.28
    C512.9,160.8,506.9,141,489.7,119.4z
    M397.5,61.7c0.06-0.26,0.14-0.52,0.21-0.79c0.14-0.53,0.29-1.06,0.46-1.59c0.09-0.28,0.18-0.56,0.28-0.84
    c0.18-0.51,0.37-1.01,0.57-1.5c0.11-0.26,0.21-0.52,0.32-0.78c0.24-0.56,0.5-1.11,0.77-1.65c0.09-0.18,0.17-0.36,0.26-0.53
    c0.37-0.71,0.76-1.4,1.18-2.08c0.1-0.16,0.21-0.32,0.31-0.48c0.33-0.51,0.66-1.02,1.02-1.51c0.16-0.23,0.34-0.45,0.5-0.67
    c0.32-0.42,0.64-0.83,0.97-1.23c0.19-0.23,0.38-0.45,0.57-0.67c0.35-0.4,0.71-0.79,1.08-1.17c0.19-0.19,0.37-0.39,0.56-0.58
    c0.47-0.46,0.95-0.91,1.44-1.34c0.1-0.09,0.2-0.19,0.31-0.28c0.6-0.52,1.22-1.01,1.85-1.48c0.18-0.14,0.38-0.26,0.56-0.4
    c0.46-0.33,0.93-0.65,1.41-0.96c0.24-0.16,0.49-0.3,0.74-0.45c0.45-0.27,0.9-0.53,1.36-0.78c0.26-0.14,0.52-0.28,0.78-0.41
    c0.49-0.25,0.99-0.48,1.49-0.71c0.24-0.11,0.47-0.22,0.7-0.32c0.74-0.31,1.49-0.6,2.26-0.86v29.96
    c-0.18-0.06-0.35-0.12-0.53-0.18c-0.52-0.18-1.04-0.36-1.56-0.53c-0.38-0.13-0.75-0.25-1.13-0.37
    c-0.53-0.17-1.06-0.34-1.59-0.5c-0.37-0.11-0.73-0.23-1.1-0.34c-0.55-0.16-1.09-0.32-1.64-0.48c-0.36-0.1-0.71-0.2-1.06-0.3
    c-0.56-0.15-1.12-0.3-1.68-0.45c-0.34-0.09-0.68-0.18-1.03-0.27c-0.58-0.15-1.15-0.28-1.73-0.42c-0.33-0.08-0.66-0.16-0.98-0.23
    c-0.59-0.14-1.18-0.26-1.78-0.39c-0.31-0.07-0.63-0.14-0.94-0.2c-0.61-0.12-1.22-0.24-1.82-0.35
    c-0.3-0.06-0.6-0.12-0.89-0.17c-0.63-0.11-1.25-0.22-1.87-0.32c-0.22-0.04-0.45-0.08-0.67-0.11
    C397.5,61.9,397.5,61.8,397.5,61.7z
    M352.3,55L352.3,55c0-14.77,9.59-27.35,22.86-31.83v37.62c-0.35,0.02-0.7,0.05-1.06,0.08
    c-0.54,0.04-1.08,0.07-1.62,0.12c-0.39,0.03-0.77,0.08-1.15,0.12c-0.51,0.05-1.02,0.1-1.53,0.16
    c-0.47,0.06-0.94,0.12-1.41,0.19c-0.41,0.06-0.83,0.1-1.24,0.16c-0.88,0.13-1.75,0.27-2.61,0.43
    c-0.95,0.17-1.88,0.37-2.81,0.59c-0.26,0.06-0.52,0.13-0.78,0.19c-0.75,0.19-1.5,0.4-2.24,0.62
    c-0.19,0.06-0.39,0.11-0.58,0.17c-0.91,0.28-1.81,0.59-2.69,0.92c-0.2,0.07-0.39,0.15-0.59,0.23
    c-0.73,0.28-1.45,0.58-2.17,0.89c-0.13,0.06-0.27,0.1-0.39,0.16V55z
    M486.9,166.5c-3.09,6.97-16.7,12.3-34.66,13.58c-13.03,0.92-26.25-0.21-38.99-3.07c-5.51-1.24-10.96-2.82-16.25-4.81
    c-5.05-1.9-10.52-4.82-15.66-1.44c-4.09,2.69-5.04,7.71-5.6,12.23c-0.67,5.42-0.67,10.91-0.32,16.36
    c0.83,12.96,3.47,25.77,6.19,38.44c0.83,3.85,1.68,7.7,2.52,11.55c0.66,2.97,1.32,5.98,1.98,9.02
    c5.32,24.52,10.42,51.03,9.22,76.14c-25.07-17.9-30.56-57.47-30.66-58.23c-0.74-5.87-6.09-10.03-11.97-9.3
    c-5.87,0.74-10.04,6.1-9.31,11.97c0.32,2.52,7.78,58.35,48.77,78.61c-4.53,18.76-13.76,34.47-27.94,47.52
    c-5.37-53.41-50.58-95.24-105.37-95.24c-5.92,0-10.72,4.8-10.72,10.72s4.8,10.72,10.72,10.72c46.57,0,84.46,37.9,84.46,84.48
    v30.52c0,5.92,4.8,10.72,10.72,10.72h45.62c11.84,0,22.97,4.61,31.34,12.98c5.79,5.79,9.78,12.89,11.69,20.63H305.53
    c-8.82,0-16.74-4.56-21.17-12.2c-4.43-7.64-4.46-16.78-0.08-24.43l2.3-4.01c0.01-0.02,0.02-0.03,0.03-0.05
    c2.69-4.69,1.09-11.23-3.4-14.21c-2.64-1.75-6.06-2.11-9.07-1.23c-3.46,1.02-5.8,3.91-8.41,6.23
    c-0.45,0.4-0.92,0.78-1.37,1.18c-19.55,16.88-43.82,28-68.73,34.29c-12.24,3.09-24.74,5.07-37.31,6.18
    c-6.19,0.55-12.39,0.89-18.6,1.06c-3.21,0.09-6.43,0.13-9.64,0.13c-2.48,0-5.93-0.71-8.32-0.1
    c0.11-0.03,0.22-0.06,0.34-0.09c0.81-0.21,1.62-0.42,2.42-0.64c19.79-5.38,39.66-14.99,53.23-30.75
    c12.79-14.85,18.48-33.92,18.48-53.32c0-1.24,0.01-2.46,0.02-3.67c0.01-0.6,0.01-1.2,0.02-1.8c0.01-0.5,0.01-0.99,0.02-1.48
    c0.65-36.27,6.43-59.24,14.05-74.61c0.25-0.49,0.49-0.99,0.75-1.47c0.05-0.1,0.1-0.19,0.15-0.29
    c2.32-4.39,4.93-8.38,7.82-12c2.5-3.13,5.2-5.98,8.11-8.61c0.24-0.22,0.49-0.43,0.73-0.65
    c6.67-5.88,14.48-10.66,23.66-14.97c0.66-0.31,1.32-0.62,1.99-0.92c8.28-3.74,17.65-7.15,28.3-10.64
    c67.46-22.11,63.4-87.35,60.71-130.51c-0.48-7.66-0.93-14.9-0.97-21.22c-0.06-8.08,2.82-15.87,8.15-21.99
    c2.7-3.12,5.98-5.69,9.62-7.56c1.21-0.62,2.46-1.17,3.74-1.64c1.71-0.62,3.48-1.1,5.28-1.43c5.31-0.95,11.01-1.26,16.97-0.93
    c11.33,0.62,23.33,3.6,34.72,8.65c0.36,0.16,0.73,0.33,1.12,0.5c1.14,0.52,2.37,1.12,3.71,1.79
    C461.4,111.7,493,152.7,486.9,166.5z"/>
  <!-- Eye -->
  <circle cx="410.4" cy="136.4" r="17.4" fill="white"/>
  <circle cx="410.4" cy="136.4" r="8.5" fill="#2563eb"/>
</svg>
